<?xml version="1.0" encoding="UTF-8"?>
<svg version="1.1" xmlns="http://www.w3.org/2000/svg" width="256" height="256">
<path d="M0 0 C0.80385132 -0.00671722 1.60770264 -0.01343445 2.43591309 -0.02035522 C5.08421053 -0.0393022 7.7322543 -0.04325714 10.38061523 -0.04541016 C12.2247681 -0.05183827 14.06891995 -0.05856664 15.91307068 -0.06558228 C19.77393968 -0.07754524 23.63471924 -0.0812639 27.49560547 -0.08007812 C32.44453128 -0.07987451 37.3928856 -0.10722506 42.34167576 -0.14162254 C46.14807273 -0.16384464 49.95433085 -0.16791718 53.76078606 -0.16685867 C55.58566198 -0.16921985 57.41054143 -0.17807235 59.23535347 -0.19352341 C61.78491659 -0.21309739 64.3332297 -0.20738081 66.8828125 -0.1953125 C68.01362495 -0.21217102 68.01362495 -0.21217102 69.1672821 -0.22937012 C72.66967832 -0.18719453 74.53297251 0.02498269 77.34312439 2.19589233 C79.00551563 4.46645693 79.42014186 5.51082356 79.37670898 8.29052734 C79.39217773 9.28052734 79.39217773 9.28052734 79.40795898 10.29052734 C78.61485156 13.27634353 77.29832117 14.38704121 74.87670898 16.29052734 C72.2850981 16.68364693 70.1142775 16.83542102 67.52539062 16.8046875 C66.42465462 16.81537514 66.42465462 16.81537514 65.30168152 16.82627869 C62.8798018 16.84555216 60.45879616 16.83728136 58.03686523 16.82958984 C56.35060857 16.83949691 54.66436273 16.85143819 52.97813416 16.86532593 C48.53963627 16.89770338 44.10138512 16.908081 39.66278076 16.91217041 C32.56212163 16.92092232 25.46166546 16.95646802 18.36117363 17.00434494 C15.88336986 17.0169173 13.40582294 17.01617298 10.92799377 17.0140686 C9.40446781 17.02065093 7.8809436 17.02765759 6.35742188 17.03515625 C5.32782852 17.02897026 5.32782852 17.02897026 4.2774353 17.0226593 C0.39823159 17.05525714 -2.76264596 17.27092206 -6.12329102 19.29052734 C-8.21580742 23.30538714 -8.37450523 26.75338674 -8.3772583 31.23608398 C-8.38037828 31.92286508 -8.38349826 32.60964617 -8.38671279 33.31723881 C-8.39467149 35.61180846 -8.38837756 37.9061121 -8.38208008 40.20068359 C-8.38479089 41.84846145 -8.38835233 43.4962381 -8.3927002 45.14401245 C-8.40181576 49.61501412 -8.39828337 54.08592345 -8.39194202 58.55692673 C-8.38687774 63.23644001 -8.39157467 67.91594539 -8.39471436 72.59545898 C-8.39835274 80.45379048 -8.39355823 88.31208437 -8.3840332 96.17041016 C-8.3731489 105.2550651 -8.37667457 114.33963026 -8.38768601 123.42428303 C-8.3967625 131.22482986 -8.39804239 139.02534967 -8.39280868 146.82590008 C-8.38969097 151.48454446 -8.38927418 156.14314666 -8.39588165 160.80178833 C-8.40165972 165.18157274 -8.39764974 169.56124142 -8.38609314 173.94101334 C-8.38344903 175.54824761 -8.38420741 177.15549162 -8.38861847 178.76272202 C-8.39408522 180.95693632 -8.3872263 183.15078 -8.3772583 185.3449707 C-8.37612722 187.18665077 -8.37612722 187.18665077 -8.3749733 189.0655365 C-8.12009456 192.3314859 -7.79158273 194.47162513 -6.12329102 197.29052734 C-2.256218 199.57915085 1.40288253 199.54178044 5.82226562 199.54449463 C6.50904672 199.54761461 7.19582781 199.55073459 7.90342045 199.55394912 C10.1979901 199.56190782 12.49229374 199.55561389 14.78686523 199.54931641 C16.43464309 199.55202722 18.08241974 199.55558866 19.73019409 199.55993652 C24.20119576 199.56905208 28.67210509 199.56551969 33.14310837 199.55917835 C37.82262165 199.55411407 42.50212703 199.558811 47.18164062 199.56195068 C55.03997212 199.56558907 62.89826601 199.56079456 70.7565918 199.55126953 C79.84124674 199.54038523 88.9258119 199.5439109 98.01046467 199.55492234 C105.8110115 199.56399883 113.61153131 199.56527872 121.41208172 199.560045 C126.0707261 199.5569273 130.7293283 199.55651051 135.38796997 199.56311798 C139.76775438 199.56889605 144.14742307 199.56488607 148.52719498 199.55332947 C150.13442925 199.55068536 151.74167326 199.55144373 153.34890366 199.5558548 C155.54311796 199.56132154 157.73696164 199.55446263 159.93115234 199.54449463 C161.77283241 199.54336355 161.77283241 199.54336355 163.65171814 199.54220963 C166.84765239 199.29279496 169.04413476 198.76684491 171.87670898 197.29052734 C174.24397737 193.35136712 174.15895685 189.28317182 174.13208008 184.80981445 C174.13570053 184.07423813 174.13932098 183.3386618 174.14305115 182.58079529 C174.14992285 180.99029209 174.15245477 179.39976543 174.15110397 177.80924797 C174.15013632 175.29141732 174.16310751 172.77401071 174.18008423 170.25624084 C174.22629501 163.10030345 174.25097526 155.94441165 174.25756836 148.78833008 C174.26257919 144.40574628 174.28680145 140.02360889 174.32289505 135.64117622 C174.33269795 133.97264853 174.3350223 132.30405948 174.32972336 130.6355114 C174.32266282 128.30380246 174.33991024 125.97342842 174.36254883 123.6418457 C174.35437637 122.9534259 174.34620392 122.2650061 174.33778381 121.5557251 C174.39586955 118.19495167 174.67992828 116.54087146 176.78384399 113.86427307 C179.05591408 112.15577271 180.07169213 111.74669896 182.87670898 111.79052734 C183.86670898 111.77505859 183.86670898 111.77505859 184.87670898 111.75927734 C187.88624382 112.55868503 188.97214871 113.83068872 190.87670898 116.29052734 C191.27150383 119.07169146 191.42432897 121.45721587 191.39428711 124.23681641 C191.40129639 125.03409653 191.40830566 125.83137665 191.41552734 126.65281677 C191.43312591 129.28761684 191.42147399 131.92134138 191.40795898 134.55615234 C191.41065444 136.39215297 191.41453731 138.2281522 191.41955566 140.06414795 C191.42545411 143.91432267 191.41688063 147.76412625 191.39819336 151.61425781 C191.37546775 156.53486013 191.3884839 161.45458663 191.41248322 166.3751564 C191.4269868 170.16888945 191.42231326 173.96241745 191.41197205 177.75615692 C191.409314 179.56933446 191.41254191 181.38253095 191.42189026 183.19568634 C191.43212403 185.73983991 191.41645818 188.28260887 191.39428711 190.82666016 C191.40238403 191.56772507 191.41048096 192.30878998 191.41882324 193.0723114 C191.31535006 199.52686666 189.17158338 204.67172436 184.91186523 209.53271484 C184.26088867 210.07154297 183.60991211 210.61037109 182.93920898 211.16552734 C182.29081055 211.71982422 181.64241211 212.27412109 180.97436523 212.84521484 C176.28584838 216.07566407 171.99962783 216.58306687 166.41984558 216.55795288 C165.30709439 216.56474955 165.30709439 216.56474955 164.17186338 216.57168353 C161.69084655 216.58432438 159.21004933 216.58270737 156.72900391 216.58105469 C154.94816303 216.58704016 153.16732474 216.59384575 151.38648987 216.60140991 C146.55167837 216.6190758 141.71693766 216.62376556 136.88209701 216.62504148 C133.86029242 216.62646338 130.83850582 216.63073372 127.8167057 216.63603592 C117.27118411 216.65453857 106.72571307 216.66270629 96.18017578 216.66113281 C86.35593493 216.65993154 76.53191382 216.68103042 66.70772856 216.71262014 C58.26849625 216.73878784 49.82933568 216.74949989 41.39006311 216.74822199 C36.35175719 216.74771248 31.31364654 216.7533898 26.27538109 216.77457809 C21.53518688 216.79396859 16.79537404 216.79407937 12.05516624 216.77954483 C10.31856732 216.7774566 8.58194448 216.78215849 6.84538651 216.79426575 C-10.85218798 216.90962983 -10.85218798 216.90962983 -18.36547852 210.32568359 C-19.1737207 209.34921875 -19.1737207 209.34921875 -19.99829102 208.35302734 C-20.55258789 207.70462891 -21.10688477 207.05623047 -21.67797852 206.38818359 C-24.90842775 201.69966674 -25.41583054 197.41344619 -25.39071655 191.83366394 C-25.39524767 191.09182981 -25.39977878 190.34999569 -25.4044472 189.58568174 C-25.41708806 187.10466491 -25.41547104 184.62386769 -25.41381836 182.14282227 C-25.41980383 180.36198139 -25.42660942 178.5811431 -25.43417358 176.80030823 C-25.45183947 171.96549673 -25.45652923 167.13075602 -25.45780516 162.29591537 C-25.45922705 159.27411078 -25.46349739 156.25232418 -25.46879959 153.23052406 C-25.48730224 142.68500247 -25.49546996 132.13953143 -25.49389648 121.59399414 C-25.49269522 111.76975329 -25.51379409 101.94573218 -25.54538381 92.12154692 C-25.57155151 83.68231461 -25.58226356 75.24315404 -25.58098567 66.80388147 C-25.58047615 61.76557555 -25.58615347 56.7274649 -25.60734177 51.68919945 C-25.62673226 46.94900524 -25.62684304 42.2091924 -25.6123085 37.4689846 C-25.61022027 35.73238568 -25.61492216 33.99576284 -25.62702942 32.25920486 C-25.7423935 14.56163038 -25.7423935 14.56163038 -19.15844727 7.04833984 C-18.5074707 6.50951172 -17.85649414 5.97068359 -17.18579102 5.41552734 C-16.53739258 4.86123047 -15.88899414 4.30693359 -15.22094727 3.73583984 C-10.33213142 0.367382 -5.80932482 -0.00700326 0 0 Z " fill="#6B4F29" transform="translate(41.123291015625,23.70947265625)"/>
<path d="M0 0 C2.42186639 1.02807085 3.86484407 2.39225251 5.73763657 4.24084091 C6.48132996 4.96862244 7.22502335 5.69640396 7.9912529 6.44623947 C8.78307465 7.2378598 9.57489639 8.02948013 10.39071274 8.84508896 C11.20867828 9.65544098 12.02664383 10.465793 12.86939621 11.30070114 C14.59545847 13.01595831 16.31755829 14.73521073 18.03597641 16.45812607 C20.67695935 19.10008309 23.33853901 21.72000054 26.00204086 24.33922958 C27.67456385 26.0065473 29.34583172 27.67512522 31.01571274 29.34508896 C31.81765564 30.1306366 32.61959854 30.91618423 33.44584274 31.72553635 C34.17377533 32.46277435 34.90170792 33.20001236 35.65169907 33.95959091 C36.29915588 34.60499329 36.9466127 35.25039566 37.61368942 35.91535568 C38.87118149 37.79430771 38.87118149 37.79430771 38.65554619 39.66786194 C37.70340462 42.24915786 36.45396674 43.68330522 34.57883835 45.69639206 C33.5192894 46.84233337 33.5192894 46.84233337 32.43833542 48.01142502 C31.65699738 48.8401059 30.87565933 49.66878677 30.07064438 50.52257919 C29.25038773 51.40270676 28.43013107 52.28283432 27.58501816 53.18963242 C19.93537196 61.36333727 12.17126587 69.42928054 4.37038136 77.45855236 C-0.85534656 82.84063167 -6.04077247 88.25130049 -11.13589859 93.75744247 C-51.13840419 136.92173542 -51.13840419 136.92173542 -79.62874031 138.27211952 C-84.82922189 138.40593319 -89.94377137 138.18031932 -95.12881851 137.79430771 C-96.44881851 137.79430771 -97.76881851 137.79430771 -99.12881851 137.79430771 C-98.86384249 134.62706495 -98.5917467 131.4606475 -98.31631851 128.29430771 C-98.24606461 127.44610458 -98.1758107 126.59790146 -98.10342789 125.72399521 C-97.93195579 123.77607217 -97.72650094 121.83098642 -97.49618912 119.88914108 C-97.16397205 116.7904274 -97.11511612 113.75204376 -97.11410904 110.63660812 C-96.59425701 92.20661678 -88.30822012 83.00452053 -75.37888646 70.75044513 C-72.78418059 68.27018137 -70.24865651 65.73062766 -67.7050972 63.19813156 C-63.44255307 58.9703011 -59.14361534 54.78291379 -54.81558609 50.62218857 C-49.25898574 45.28012656 -43.76458176 39.87838599 -38.28783894 34.45461559 C-33.56289426 29.77540811 -28.815677 25.11900059 -24.06217265 20.46882749 C-23.0450905 19.47329416 -22.02872672 18.47702639 -21.01307607 17.48003268 C-17.68729776 14.21574647 -14.3400192 10.97499877 -10.98062515 7.74523544 C-9.71886459 6.50599823 -9.71886459 6.50599823 -8.43161392 5.24172592 C-7.2687159 4.13466042 -7.2687159 4.13466042 -6.08232498 3.00522995 C-5.41146897 2.35704017 -4.74061296 1.70885038 -4.04942799 1.04101849 C-2.12881851 -0.20569229 -2.12881851 -0.20569229 0 0 Z " fill="#6B4F29" transform="translate(169.1288185119629,48.205692291259766)"/>
<path d="M0 0 C0.88300781 -0.04253906 1.76601562 -0.08507813 2.67578125 -0.12890625 C10.72224802 1.71833709 16.89416762 9.45979429 22.5 15.125 C23.24958984 15.86685547 23.99917969 16.60871094 24.77148438 17.37304688 C25.49271484 18.09685547 26.21394531 18.82066406 26.95703125 19.56640625 C27.60260986 20.21424072 28.24818848 20.8620752 28.91333008 21.52954102 C33.24211137 26.48973942 34.38243107 30.32300957 34.140625 36.80859375 C33.3533128 41.59355151 31.0089932 44.15251231 27.6875 47.5625 C27.17268066 48.09262695 26.65786133 48.62275391 26.12744141 49.16894531 C22.36779326 53.02287598 18.54566454 56.80737249 14.6875 60.5625 C11.46004476 59.14348338 9.31491893 57.43394235 6.83691406 54.93896484 C6.09644836 54.19834808 5.35598267 53.45773132 4.59307861 52.69467163 C3.80439392 51.89566437 3.01570923 51.0966571 2.203125 50.2734375 C1.38753113 49.45501373 0.57193726 48.63658997 -0.26837158 47.79336548 C-2.87114562 45.17940027 -5.46687762 42.55856495 -8.0625 39.9375 C-9.8263634 38.16360546 -11.5906809 36.39016234 -13.35546875 34.6171875 C-17.67976136 30.27084858 -21.9982933 25.91884919 -26.3125 21.5625 C-24.90402145 18.63202331 -23.53101071 16.52492163 -21.23046875 14.21484375 C-20.62783203 13.60962891 -20.02519531 13.00441406 -19.40429688 12.38085938 C-18.77587891 11.76017578 -18.14746094 11.13949219 -17.5 10.5 C-16.88318359 9.87544922 -16.26636719 9.25089844 -15.63085938 8.60742188 C-10.88385725 3.88059829 -7.01375739 0.15225233 0 0 Z " fill="#6B4E29" transform="translate(206.3125,15.4375)"/>
</svg>
